<svg xmlns="http://www.w3.org/2000/svg" xmlns:xlink="http://www.w3.org/1999/xlink" class="httpgd" width="725.00" height="529.00" viewBox="0 0 725.00 529.00">
<defs>
  <style type='text/css'><![CDATA[
    .httpgd line, .httpgd polyline, .httpgd polygon, .httpgd path, .httpgd rect, .httpgd circle {
      fill: none;
      stroke: #000000;
      stroke-linecap: round;
      stroke-linejoin: round;
      stroke-miterlimit: 10.00;
    }
  ]]></style>
<clipPath id="c0"><rect x="0.00" y="0.00" width="725.00" height="529.00"/></clipPath>
<clipPath id="c1"><rect x="38.97" y="38.97" width="666.08" height="88.90"/></clipPath>
<clipPath id="c2"><rect x="0.00" y="0.00" width="725.00" height="176.33"/></clipPath>
<clipPath id="c3"><rect x="0.00" y="0.00" width="725.00" height="529.00"/></clipPath>
<clipPath id="c4"><rect x="38.97" y="38.97" width="666.08" height="88.90"/></clipPath>
<clipPath id="c5"><rect x="38.97" y="215.30" width="666.08" height="88.90"/></clipPath>
<clipPath id="c6"><rect x="0.00" y="176.33" width="725.00" height="176.33"/></clipPath>
<clipPath id="c7"><rect x="0.00" y="0.00" width="725.00" height="529.00"/></clipPath>
<clipPath id="c8"><rect x="38.97" y="215.30" width="666.08" height="88.90"/></clipPath>
<clipPath id="c9"><rect x="38.97" y="391.63" width="666.08" height="88.90"/></clipPath>
<clipPath id="c10"><rect x="0.00" y="352.67" width="725.00" height="176.33"/></clipPath>
<clipPath id="c11"><rect x="0.00" y="0.00" width="725.00" height="529.00"/></clipPath>
<clipPath id="c12"><rect x="38.97" y="391.63" width="666.08" height="88.90"/></clipPath>
<clipPath id="c13"><rect x="59.04" y="59.04" width="635.72" height="396.52"/></clipPath>
</defs>
<rect width="100%" height="100%" style="stroke: none;fill: #FFFFFF;"/>
<g clip-path="url(#c0)">
</g><g clip-path="url(#c1)">
<polyline points="632.78,110.93 634.76,108.57 636.74,107.16 638.73,105.59 640.71,104.04 642.69,102.56 644.68,101.10 646.66,99.69 648.64,98.33 650.63,97.02 652.61,95.77 654.59,94.57 656.58,93.43 658.56,92.35 660.54,91.34 662.52,90.38 664.51,89.49 666.49,88.65 668.47,87.88 670.46,87.16 672.44,86.50 674.42,85.90 676.41,85.35 678.39,84.86 680.37,84.41" style="stroke-width: 0.75;stroke: #0000FF; stroke-dasharray: 4.00, 4.00;"/>
</g><g clip-path="url(#c2)">
<g><text x="372.00" y="22.88" text-anchor="middle" style="font-family: Arial;font-size: 9.50px;font-weight: bold;" textLength="121.23px" lengthAdjust="spacingAndGlyphs">Forecast of series STARTS</text></g>
</g><g clip-path="url(#c3)">
<line x1="61.65" y1="127.86" x2="656.58" y2="127.86" style="stroke-width: 0.75;"/>
<line x1="61.65" y1="127.86" x2="61.65" y2="132.61" style="stroke-width: 0.75;"/>
<line x1="160.81" y1="127.86" x2="160.81" y2="132.61" style="stroke-width: 0.75;"/>
<line x1="259.96" y1="127.86" x2="259.96" y2="132.61" style="stroke-width: 0.75;"/>
<line x1="359.11" y1="127.86" x2="359.11" y2="132.61" style="stroke-width: 0.75;"/>
<line x1="458.27" y1="127.86" x2="458.27" y2="132.61" style="stroke-width: 0.75;"/>
<line x1="557.42" y1="127.86" x2="557.42" y2="132.61" style="stroke-width: 0.75;"/>
<line x1="656.58" y1="127.86" x2="656.58" y2="132.61" style="stroke-width: 0.75;"/>
<g><text x="61.65" y="144.97" text-anchor="middle" style="font-family: Arial;font-size: 7.92px;" textLength="4.40px" lengthAdjust="spacingAndGlyphs">0</text></g>
<g><text x="160.81" y="144.97" text-anchor="middle" style="font-family: Arial;font-size: 7.92px;" textLength="8.80px" lengthAdjust="spacingAndGlyphs">50</text></g>
<g><text x="259.96" y="144.97" text-anchor="middle" style="font-family: Arial;font-size: 7.92px;" textLength="13.20px" lengthAdjust="spacingAndGlyphs">100</text></g>
<g><text x="359.11" y="144.97" text-anchor="middle" style="font-family: Arial;font-size: 7.92px;" textLength="13.20px" lengthAdjust="spacingAndGlyphs">150</text></g>
<g><text x="458.27" y="144.97" text-anchor="middle" style="font-family: Arial;font-size: 7.92px;" textLength="13.20px" lengthAdjust="spacingAndGlyphs">200</text></g>
<g><text x="557.42" y="144.97" text-anchor="middle" style="font-family: Arial;font-size: 7.92px;" textLength="13.20px" lengthAdjust="spacingAndGlyphs">250</text></g>
<g><text x="656.58" y="144.97" text-anchor="middle" style="font-family: Arial;font-size: 7.92px;" textLength="13.20px" lengthAdjust="spacingAndGlyphs">300</text></g>
<line x1="38.97" y1="114.77" x2="38.97" y2="41.97" style="stroke-width: 0.75;"/>
<line x1="38.97" y1="114.77" x2="34.21" y2="114.77" style="stroke-width: 0.75;"/>
<line x1="38.97" y1="90.50" x2="34.21" y2="90.50" style="stroke-width: 0.75;"/>
<line x1="38.97" y1="66.23" x2="34.21" y2="66.23" style="stroke-width: 0.75;"/>
<line x1="38.97" y1="41.97" x2="34.21" y2="41.97" style="stroke-width: 0.75;"/>
<g><text transform="translate(27.56,114.77) rotate(-90.00)" text-anchor="middle" style="font-family: Arial;font-size: 7.92px;" textLength="10.99px" lengthAdjust="spacingAndGlyphs">1.0</text></g>
<g><text transform="translate(27.56,90.50) rotate(-90.00)" text-anchor="middle" style="font-family: Arial;font-size: 7.92px;" textLength="10.99px" lengthAdjust="spacingAndGlyphs">1.5</text></g>
<g><text transform="translate(27.56,66.23) rotate(-90.00)" text-anchor="middle" style="font-family: Arial;font-size: 7.92px;" textLength="10.99px" lengthAdjust="spacingAndGlyphs">2.0</text></g>
<g><text transform="translate(27.56,41.97) rotate(-90.00)" text-anchor="middle" style="font-family: Arial;font-size: 7.92px;" textLength="10.99px" lengthAdjust="spacingAndGlyphs">2.5</text></g>
<polygon points="38.97,127.86 705.04,127.86 705.04,38.97 38.97,38.97" style="stroke-width: 0.75;" />
</g><g clip-path="url(#c4)">
<polyline points="63.64,96.32 65.62,89.53 67.60,92.15 69.59,87.88 71.57,94.97 73.55,95.11 75.53,89.92 77.52,90.74 79.50,87.78 81.48,87.15 83.47,84.19 85.45,88.17 87.43,77.45 89.42,80.55 91.40,87.54 93.38,89.34 95.37,86.47 97.35,89.14 99.33,96.91 101.31,97.39 103.30,90.16 105.28,96.28 107.26,103.65 109.25,98.90 111.23,110.64 113.21,99.96 115.20,99.28 117.18,101.95 119.16,100.69 121.15,96.08 123.13,89.68 125.11,95.40 127.09,88.85 129.08,86.62 131.06,83.37 133.04,71.43 135.03,74.58 137.01,78.80 138.99,70.60 140.98,66.91 142.96,63.86 144.94,64.97 146.92,62.21 148.91,58.57 150.89,64.24 152.87,60.02 154.86,57.40 156.84,51.92 158.82,42.26 160.81,47.31 162.79,50.02 164.77,54.15 166.76,55.51 168.74,53.91 170.72,54.00 172.70,47.69 174.69,42.89 176.67,42.70 178.65,45.80 180.64,48.47 182.62,42.89 184.60,52.21 186.59,48.52 188.57,62.16 190.55,53.32 192.54,62.98 194.52,60.26 196.50,63.76 198.48,72.35 200.47,81.91 202.45,79.63 204.43,89.24 206.42,92.88 208.40,78.27 210.38,87.83 212.37,85.31 214.35,94.09 216.33,89.87 218.32,99.43 220.30,107.88 222.28,107.49 224.26,111.37 226.25,113.50 228.23,115.98 230.21,113.21 232.20,119.43 234.18,115.11 236.16,114.52 238.15,108.89 240.13,110.54 242.11,103.80 244.10,102.15 246.08,101.95 248.06,98.07 250.04,97.30 252.03,99.19 254.01,96.96 255.99,88.66 257.98,94.33 259.96,95.60 261.94,92.49 263.93,90.74 265.91,95.31 267.89,88.07 269.88,79.82 271.86,84.24 273.84,83.66 275.82,75.75 277.81,89.19 279.79,69.00 281.77,63.18 283.76,71.48 285.74,67.64 287.72,71.43 289.71,63.42 291.69,65.26 293.67,68.71 295.66,64.20 297.64,64.20 299.62,59.34 301.60,79.92 303.59,78.95 305.57,64.68 307.55,56.67 309.54,62.59 311.52,62.84 313.50,61.77 315.49,66.43 317.47,67.69 319.45,67.16 321.44,61.67 323.42,64.10 325.40,84.19 327.38,89.53 329.37,73.66 331.35,78.46 333.33,72.25 335.32,70.46 337.30,77.88 339.28,77.01 341.27,74.39 343.25,81.72 345.23,89.34 347.22,90.60 349.20,98.22 351.18,97.78 353.16,112.49 355.15,112.29 357.13,118.31 359.11,105.25 361.10,101.71 363.08,93.61 365.06,91.91 367.05,89.38 369.03,90.02 371.01,91.37 373.00,88.22 374.98,102.83 376.96,99.92 378.94,97.30 380.93,107.97 382.91,112.58 384.89,112.78 386.88,117.68 388.86,119.09 390.84,120.93 392.83,122.68 394.81,119.13 396.79,122.39 398.78,121.27 400.76,118.12 402.74,118.80 404.72,113.55 406.71,119.52 408.69,106.71 410.67,112.53 412.66,107.78 414.64,106.37 416.62,96.71 418.61,100.06 420.59,86.33 422.57,80.84 424.56,85.36 426.54,91.86 428.52,77.11 430.50,79.19 432.49,76.67 434.47,70.60 436.45,80.31 438.44,80.07 440.42,76.67 442.40,81.38 444.39,71.23 446.37,53.62 448.35,82.59 450.34,73.47 452.32,77.20 454.30,73.85 456.28,79.24 458.27,86.33 460.25,80.89 462.23,86.13 464.22,81.33 466.20,85.06 468.18,80.26 470.17,84.09 472.15,75.94 474.13,74.92 476.12,81.76 478.10,81.96 480.08,81.57 482.06,78.71 484.05,81.96 486.03,74.29 488.01,80.89 490.00,69.05 491.98,67.59 493.96,73.61 495.95,72.25 497.93,69.49 499.91,73.32 501.90,73.66 503.88,76.81 505.86,75.60 507.84,81.42 509.83,81.72 511.81,84.53 513.79,74.34 515.78,77.20 517.76,76.72 519.74,79.53 521.73,84.97 523.71,84.29 525.69,85.94 527.68,86.86 529.66,85.40 531.64,81.04 533.62,89.77 535.61,82.93 537.59,95.35 539.57,101.61 541.56,91.81 543.54,88.95 545.52,86.96 547.51,94.33 549.49,91.57 551.47,92.10 553.46,90.84 555.44,90.89 557.42,89.43 559.40,87.15 561.39,87.44 563.37,84.63 565.35,94.14 567.34,94.29 569.32,98.31 571.30,98.70 573.29,95.50 575.27,94.04 577.25,98.65 579.24,101.23 581.22,94.87 583.20,97.73 585.18,102.59 587.17,88.03 589.15,93.56 591.13,100.74 593.12,102.73 595.10,104.48 597.08,106.18 599.07,106.47 601.05,109.19 603.03,109.43 605.02,114.09 607.00,107.73 608.98,116.27 610.96,124.57 612.95,116.47 614.93,118.60 616.91,114.72 618.90,114.96 620.88,113.02 622.86,111.71 624.85,112.39 626.83,114.04 628.81,110.93 630.80,109.77 632.78,110.93" style="stroke-width: 0.75;"/>
<polyline points="632.78,110.93 634.76,120.44 636.74,121.61 638.73,122.79 640.71,123.43 642.69,123.89 644.68,124.13 646.66,124.23 648.64,124.20 650.63,124.06 652.61,123.83 654.59,123.54 656.58,123.18 658.56,122.78 660.54,122.34 662.52,121.88 664.51,121.40 666.49,120.91 668.47,120.42 670.46,119.94 672.44,119.47 674.42,119.03 676.41,118.60 678.39,118.20 680.37,117.84" style="stroke-width: 0.75;stroke: #FF0000; stroke-dasharray: 1.00, 3.00;"/>
<polyline points="632.78,110.93 634.76,96.70 636.74,92.71 638.73,88.39 640.71,84.65 642.69,81.23 644.68,78.07 646.66,75.16 648.64,72.47 650.63,69.99 652.61,67.70 654.59,65.61 656.58,63.69 658.56,61.93 660.54,60.33 662.52,58.88 664.51,57.57 666.49,56.39 668.47,55.33 670.46,54.38 672.44,53.53 674.42,52.77 676.41,52.10 678.39,51.51 680.37,50.99" style="stroke-width: 0.75;stroke: #FF0000; stroke-dasharray: 1.00, 3.00;"/>
<line x1="632.78" y1="127.86" x2="632.78" y2="38.97" style="stroke-width: 0.75;stroke: #BEBEBE; stroke-dasharray: 1.00, 3.00, 4.00, 3.00;"/>
</g><g clip-path="url(#c5)">
<polyline points="632.78,293.50 634.76,291.61 636.74,291.02 638.73,289.67 640.71,288.59 642.69,287.32 644.68,286.09 646.66,284.79 648.64,283.50 650.63,282.20 652.61,280.90 654.59,279.60 656.58,278.32 658.56,277.07 660.54,275.83 662.52,274.63 664.51,273.46 666.49,272.33 668.47,271.24 670.46,270.20 672.44,269.20 674.42,268.24 676.41,267.34 678.39,266.48 680.37,265.67" style="stroke-width: 0.75;stroke: #0000FF; stroke-dasharray: 4.00, 4.00;"/>
</g><g clip-path="url(#c6)">
<g><text x="372.00" y="199.21" text-anchor="middle" style="font-family: Arial;font-size: 9.50px;font-weight: bold;" textLength="118.77px" lengthAdjust="spacingAndGlyphs">Forecast of series COMPS</text></g>
</g><g clip-path="url(#c7)">
<line x1="61.65" y1="304.20" x2="656.58" y2="304.20" style="stroke-width: 0.75;"/>
<line x1="61.65" y1="304.20" x2="61.65" y2="308.95" style="stroke-width: 0.75;"/>
<line x1="160.81" y1="304.20" x2="160.81" y2="308.95" style="stroke-width: 0.75;"/>
<line x1="259.96" y1="304.20" x2="259.96" y2="308.95" style="stroke-width: 0.75;"/>
<line x1="359.11" y1="304.20" x2="359.11" y2="308.95" style="stroke-width: 0.75;"/>
<line x1="458.27" y1="304.20" x2="458.27" y2="308.95" style="stroke-width: 0.75;"/>
<line x1="557.42" y1="304.20" x2="557.42" y2="308.95" style="stroke-width: 0.75;"/>
<line x1="656.58" y1="304.20" x2="656.58" y2="308.95" style="stroke-width: 0.75;"/>
<g><text x="61.65" y="321.30" text-anchor="middle" style="font-family: Arial;font-size: 7.92px;" textLength="4.40px" lengthAdjust="spacingAndGlyphs">0</text></g>
<g><text x="160.81" y="321.30" text-anchor="middle" style="font-family: Arial;font-size: 7.92px;" textLength="8.80px" lengthAdjust="spacingAndGlyphs">50</text></g>
<g><text x="259.96" y="321.30" text-anchor="middle" style="font-family: Arial;font-size: 7.92px;" textLength="13.20px" lengthAdjust="spacingAndGlyphs">100</text></g>
<g><text x="359.11" y="321.30" text-anchor="middle" style="font-family: Arial;font-size: 7.92px;" textLength="13.20px" lengthAdjust="spacingAndGlyphs">150</text></g>
<g><text x="458.27" y="321.30" text-anchor="middle" style="font-family: Arial;font-size: 7.92px;" textLength="13.20px" lengthAdjust="spacingAndGlyphs">200</text></g>
<g><text x="557.42" y="321.30" text-anchor="middle" style="font-family: Arial;font-size: 7.92px;" textLength="13.20px" lengthAdjust="spacingAndGlyphs">250</text></g>
<g><text x="656.58" y="321.30" text-anchor="middle" style="font-family: Arial;font-size: 7.92px;" textLength="13.20px" lengthAdjust="spacingAndGlyphs">300</text></g>
<line x1="38.97" y1="293.61" x2="38.97" y2="224.31" style="stroke-width: 0.75;"/>
<line x1="38.97" y1="293.61" x2="34.21" y2="293.61" style="stroke-width: 0.75;"/>
<line x1="38.97" y1="282.06" x2="34.21" y2="282.06" style="stroke-width: 0.75;"/>
<line x1="38.97" y1="270.51" x2="34.21" y2="270.51" style="stroke-width: 0.75;"/>
<line x1="38.97" y1="258.96" x2="34.21" y2="258.96" style="stroke-width: 0.75;"/>
<line x1="38.97" y1="247.41" x2="34.21" y2="247.41" style="stroke-width: 0.75;"/>
<line x1="38.97" y1="235.86" x2="34.21" y2="235.86" style="stroke-width: 0.75;"/>
<line x1="38.97" y1="224.31" x2="34.21" y2="224.31" style="stroke-width: 0.75;"/>
<g><text transform="translate(27.56,293.61) rotate(-90.00)" text-anchor="middle" style="font-family: Arial;font-size: 7.92px;" textLength="10.99px" lengthAdjust="spacingAndGlyphs">1.0</text></g>
<g><text transform="translate(27.56,270.51) rotate(-90.00)" text-anchor="middle" style="font-family: Arial;font-size: 7.92px;" textLength="10.99px" lengthAdjust="spacingAndGlyphs">1.4</text></g>
<g><text transform="translate(27.56,247.41) rotate(-90.00)" text-anchor="middle" style="font-family: Arial;font-size: 7.92px;" textLength="10.99px" lengthAdjust="spacingAndGlyphs">1.8</text></g>
<g><text transform="translate(27.56,224.31) rotate(-90.00)" text-anchor="middle" style="font-family: Arial;font-size: 7.92px;" textLength="10.99px" lengthAdjust="spacingAndGlyphs">2.2</text></g>
<polygon points="38.97,304.20 705.04,304.20 705.04,215.30 38.97,215.30" style="stroke-width: 0.75;" />
</g><g clip-path="url(#c8)">
<polyline points="63.64,278.77 65.62,283.56 67.60,274.96 69.59,274.67 71.57,272.42 73.55,282.98 75.53,272.24 77.52,277.50 79.50,270.68 81.48,273.51 83.47,272.42 85.45,271.09 87.43,278.77 89.42,269.70 91.40,261.39 93.38,275.25 95.37,268.78 97.35,267.33 99.33,268.66 101.31,270.91 103.30,272.42 105.28,270.16 107.26,270.28 109.25,270.40 111.23,268.55 113.21,268.78 115.20,275.30 117.18,273.17 119.16,274.32 121.15,268.72 123.13,271.43 125.11,258.44 127.09,271.49 129.08,268.37 131.06,267.22 133.04,268.37 135.03,266.41 137.01,267.74 138.99,265.37 140.98,252.67 142.96,256.82 144.94,256.82 146.92,253.24 148.91,241.87 150.89,247.18 152.87,246.54 154.86,244.87 156.84,241.92 158.82,239.21 160.81,232.34 162.79,236.96 164.77,237.59 166.76,241.87 168.74,239.56 170.72,239.90 172.70,229.97 174.69,232.80 176.67,236.15 178.65,236.73 180.64,228.87 182.62,226.50 184.60,228.70 186.59,224.54 188.57,224.60 190.55,218.59 192.54,220.96 194.52,232.05 196.50,232.63 198.48,232.34 200.47,232.86 202.45,240.19 204.43,243.43 206.42,239.79 208.40,239.44 210.38,247.06 212.37,245.68 214.35,252.32 216.33,241.81 218.32,253.47 220.30,257.00 222.28,256.02 224.26,257.23 226.25,259.54 228.23,262.43 230.21,259.65 232.20,273.63 234.18,276.69 236.16,277.56 238.15,273.46 240.13,280.10 242.11,277.67 244.10,276.86 246.08,274.38 248.06,285.87 250.04,271.49 252.03,275.94 254.01,278.71 255.99,275.65 257.98,273.57 259.96,274.44 261.94,268.20 263.93,271.09 265.91,275.02 267.89,272.01 269.88,272.19 271.86,271.20 273.84,268.89 275.82,267.22 277.81,267.22 279.79,255.78 281.77,257.86 283.76,261.96 285.74,261.56 287.72,256.88 289.71,253.94 291.69,254.74 293.67,243.66 295.66,254.63 297.64,249.14 299.62,257.00 301.60,248.74 303.59,252.09 305.57,248.28 307.55,244.93 309.54,244.52 311.52,241.35 313.50,238.34 315.49,237.25 317.47,239.09 319.45,242.50 321.44,242.96 323.42,244.87 325.40,244.52 327.38,244.81 329.37,238.98 331.35,243.60 333.33,235.46 335.32,244.35 337.30,249.78 339.28,248.62 341.27,236.84 343.25,245.56 345.23,242.10 347.22,243.77 349.20,247.76 351.18,247.24 353.16,253.13 355.15,250.24 357.13,262.89 359.11,265.89 361.10,266.35 363.08,268.20 365.06,278.19 367.05,277.90 369.03,275.54 371.01,271.78 373.00,278.02 374.98,270.80 376.96,271.84 378.94,266.53 380.93,279.40 382.91,273.40 384.89,274.15 386.88,280.79 388.86,280.85 390.84,281.71 392.83,289.34 394.81,286.16 396.79,290.61 398.78,297.37 400.76,295.63 402.74,294.82 404.72,290.15 406.71,297.65 408.69,293.26 410.67,294.48 412.66,296.67 414.64,290.20 416.62,289.05 418.61,290.90 420.59,282.81 422.57,285.81 424.56,283.91 426.54,282.23 428.52,276.29 430.50,273.74 432.49,269.93 434.47,252.55 436.45,265.14 438.44,259.77 440.42,266.93 442.40,264.22 444.39,259.25 446.37,261.15 448.35,258.96 450.34,254.17 452.32,251.34 454.30,252.38 456.28,253.65 458.27,254.05 460.25,256.53 462.23,257.05 464.22,258.33 466.20,257.29 468.18,256.30 470.17,249.03 472.15,252.32 474.13,257.23 476.12,255.21 478.10,247.93 480.08,253.59 482.06,254.05 484.05,247.06 486.03,260.98 488.01,250.36 490.00,251.34 491.98,251.86 493.96,250.12 495.95,249.95 497.93,254.05 499.91,245.50 501.90,254.80 503.88,251.91 505.86,249.55 507.84,251.34 509.83,248.45 511.81,247.81 513.79,245.10 515.78,243.83 517.76,249.08 519.74,253.53 521.73,251.16 523.71,252.43 525.69,256.94 527.68,254.05 529.66,257.57 531.64,259.71 533.62,260.29 535.61,260.23 537.59,257.11 539.57,261.62 541.56,267.62 543.54,258.96 545.52,258.09 547.51,265.72 549.49,264.04 551.47,263.18 553.46,261.79 555.44,262.95 557.42,263.06 559.40,270.11 561.39,262.02 563.37,261.21 565.35,259.13 567.34,268.09 569.32,262.31 571.30,267.68 573.29,273.63 575.27,271.32 577.25,268.84 579.24,274.09 581.22,274.38 583.20,266.18 585.18,276.05 587.17,264.27 589.15,273.28 591.13,273.69 593.12,274.44 595.10,273.34 597.08,278.42 599.07,276.57 601.05,275.88 603.03,275.59 605.02,277.33 607.00,279.29 608.98,283.62 610.96,285.01 612.95,288.41 614.93,283.45 616.91,288.24 618.90,289.57 620.88,288.24 622.86,289.22 624.85,290.72 626.83,281.14 628.81,289.22 630.80,292.86 632.78,293.50" style="stroke-width: 0.75;"/>
<polyline points="632.78,293.50 634.76,300.34 636.74,300.59 638.73,300.89 640.71,300.90 642.69,300.86 644.68,300.79 646.66,300.69 648.64,300.58 650.63,300.45 652.61,300.30 654.59,300.12 656.58,299.91 658.56,299.67 660.54,299.39 662.52,299.08 664.51,298.74 666.49,298.36 668.47,297.95 670.46,297.52 672.44,297.07 674.42,296.61 676.41,296.13 678.39,295.64 680.37,295.15" style="stroke-width: 0.75;stroke: #FF0000; stroke-dasharray: 1.00, 3.00;"/>
<polyline points="632.78,293.50 634.76,282.89 636.74,281.46 638.73,278.44 640.71,276.29 642.69,273.78 644.68,271.38 646.66,268.90 648.64,266.42 650.63,263.94 652.61,261.49 654.59,259.08 656.58,256.73 658.56,254.46 660.54,252.27 662.52,250.18 664.51,248.19 666.49,246.31 668.47,244.53 670.46,242.87 672.44,241.32 674.42,239.88 676.41,238.55 678.39,237.32 680.37,236.19" style="stroke-width: 0.75;stroke: #FF0000; stroke-dasharray: 1.00, 3.00;"/>
<line x1="632.78" y1="304.20" x2="632.78" y2="215.30" style="stroke-width: 0.75;stroke: #BEBEBE; stroke-dasharray: 1.00, 3.00, 4.00, 3.00;"/>
</g><g clip-path="url(#c9)">
<polyline points="632.78,433.86 634.76,433.34 636.74,432.92 638.73,432.60 640.71,432.35 642.69,432.18 644.68,432.08 646.66,432.04 648.64,432.06 650.63,432.13 652.61,432.24 654.59,432.40 656.58,432.60 658.56,432.82 660.54,433.08 662.52,433.36 664.51,433.65 666.49,433.96 668.47,434.29 670.46,434.62 672.44,434.96 674.42,435.30 676.41,435.65 678.39,435.99 680.37,436.33" style="stroke-width: 0.75;stroke: #0000FF; stroke-dasharray: 4.00, 4.00;"/>
</g><g clip-path="url(#c10)">
<g><text x="372.00" y="375.55" text-anchor="middle" style="font-family: Arial;font-size: 9.50px;font-weight: bold;" textLength="118.25px" lengthAdjust="spacingAndGlyphs">Forecast of series UNEMP</text></g>
</g><g clip-path="url(#c11)">
<line x1="61.65" y1="480.53" x2="656.58" y2="480.53" style="stroke-width: 0.75;"/>
<line x1="61.65" y1="480.53" x2="61.65" y2="485.28" style="stroke-width: 0.75;"/>
<line x1="160.81" y1="480.53" x2="160.81" y2="485.28" style="stroke-width: 0.75;"/>
<line x1="259.96" y1="480.53" x2="259.96" y2="485.28" style="stroke-width: 0.75;"/>
<line x1="359.11" y1="480.53" x2="359.11" y2="485.28" style="stroke-width: 0.75;"/>
<line x1="458.27" y1="480.53" x2="458.27" y2="485.28" style="stroke-width: 0.75;"/>
<line x1="557.42" y1="480.53" x2="557.42" y2="485.28" style="stroke-width: 0.75;"/>
<line x1="656.58" y1="480.53" x2="656.58" y2="485.28" style="stroke-width: 0.75;"/>
<g><text x="61.65" y="497.64" text-anchor="middle" style="font-family: Arial;font-size: 7.92px;" textLength="4.40px" lengthAdjust="spacingAndGlyphs">0</text></g>
<g><text x="160.81" y="497.64" text-anchor="middle" style="font-family: Arial;font-size: 7.92px;" textLength="8.80px" lengthAdjust="spacingAndGlyphs">50</text></g>
<g><text x="259.96" y="497.64" text-anchor="middle" style="font-family: Arial;font-size: 7.92px;" textLength="13.20px" lengthAdjust="spacingAndGlyphs">100</text></g>
<g><text x="359.11" y="497.64" text-anchor="middle" style="font-family: Arial;font-size: 7.92px;" textLength="13.20px" lengthAdjust="spacingAndGlyphs">150</text></g>
<g><text x="458.27" y="497.64" text-anchor="middle" style="font-family: Arial;font-size: 7.92px;" textLength="13.20px" lengthAdjust="spacingAndGlyphs">200</text></g>
<g><text x="557.42" y="497.64" text-anchor="middle" style="font-family: Arial;font-size: 7.92px;" textLength="13.20px" lengthAdjust="spacingAndGlyphs">250</text></g>
<g><text x="656.58" y="497.64" text-anchor="middle" style="font-family: Arial;font-size: 7.92px;" textLength="13.20px" lengthAdjust="spacingAndGlyphs">300</text></g>
<line x1="38.97" y1="470.56" x2="38.97" y2="403.82" style="stroke-width: 0.75;"/>
<line x1="38.97" y1="470.56" x2="34.21" y2="470.56" style="stroke-width: 0.75;"/>
<line x1="38.97" y1="448.32" x2="34.21" y2="448.32" style="stroke-width: 0.75;"/>
<line x1="38.97" y1="426.07" x2="34.21" y2="426.07" style="stroke-width: 0.75;"/>
<line x1="38.97" y1="403.82" x2="34.21" y2="403.82" style="stroke-width: 0.75;"/>
<g><text transform="translate(27.56,470.56) rotate(-90.00)" text-anchor="middle" style="font-family: Arial;font-size: 7.92px;" textLength="4.40px" lengthAdjust="spacingAndGlyphs">4</text></g>
<g><text transform="translate(27.56,448.32) rotate(-90.00)" text-anchor="middle" style="font-family: Arial;font-size: 7.92px;" textLength="4.40px" lengthAdjust="spacingAndGlyphs">6</text></g>
<g><text transform="translate(27.56,426.07) rotate(-90.00)" text-anchor="middle" style="font-family: Arial;font-size: 7.92px;" textLength="4.40px" lengthAdjust="spacingAndGlyphs">8</text></g>
<g><text transform="translate(27.56,403.82) rotate(-90.00)" text-anchor="middle" style="font-family: Arial;font-size: 7.92px;" textLength="8.80px" lengthAdjust="spacingAndGlyphs">10</text></g>
<polygon points="38.97,480.53 705.04,480.53 705.04,391.63 38.97,391.63" style="stroke-width: 0.75;" />
</g><g clip-path="url(#c12)">
<polyline points="63.64,473.90 65.62,472.79 67.60,473.90 69.59,476.12 71.57,476.12 73.55,473.90 75.53,473.90 77.52,476.12 79.50,477.24 81.48,477.24 83.47,477.24 85.45,477.24 87.43,477.24 89.42,477.24 91.40,477.24 93.38,477.24 95.37,477.24 97.35,476.12 99.33,476.12 101.31,476.12 103.30,473.90 105.28,473.90 107.26,476.12 109.25,476.12 111.23,471.68 113.21,468.34 115.20,466.11 117.18,463.89 119.16,461.66 121.15,460.55 123.13,459.44 125.11,458.33 127.09,454.99 129.08,453.88 131.06,449.43 133.04,447.20 135.03,449.43 137.01,449.43 138.99,448.32 140.98,449.43 142.96,449.43 144.94,449.43 146.92,448.32 148.91,447.20 150.89,448.32 152.87,450.54 154.86,448.32 156.84,448.32 158.82,450.54 160.81,451.65 162.79,450.54 164.77,451.65 166.76,451.65 168.74,451.65 170.72,452.77 172.70,452.77 174.69,453.88 176.67,452.77 178.65,456.10 180.64,457.22 182.62,460.55 184.60,459.44 186.59,460.55 188.57,459.44 190.55,460.55 192.54,460.55 194.52,461.66 196.50,461.66 198.48,461.66 200.47,463.89 202.45,461.66 204.43,460.55 206.42,458.33 208.40,457.22 210.38,458.33 212.37,458.33 214.35,458.33 216.33,454.99 218.32,453.88 220.30,453.88 222.28,449.43 224.26,448.32 226.25,441.64 228.23,434.97 230.21,424.96 232.20,424.96 234.18,419.40 236.16,417.17 238.15,414.95 240.13,417.17 242.11,419.40 244.10,421.62 246.08,421.62 248.06,421.62 250.04,422.73 252.03,423.85 254.01,427.18 255.99,429.41 257.98,430.52 259.96,429.41 261.94,432.74 263.93,430.52 265.91,428.30 267.89,428.30 269.88,430.52 271.86,429.41 273.84,428.30 275.82,428.30 277.81,431.63 279.79,430.52 281.77,432.74 283.76,434.97 285.74,437.19 287.72,434.97 289.71,438.31 291.69,437.19 293.67,439.42 295.66,439.42 297.64,439.42 299.62,443.87 301.60,443.87 303.59,444.98 305.57,444.98 307.55,447.20 309.54,448.32 311.52,449.43 313.50,446.09 315.49,449.43 317.47,448.32 319.45,450.54 321.44,449.43 323.42,448.32 325.40,449.43 327.38,449.43 329.37,450.54 331.35,450.54 333.33,452.77 335.32,451.65 337.30,451.65 339.28,448.32 341.27,449.43 343.25,448.32 345.23,449.43 347.22,448.32 349.20,444.98 351.18,444.98 353.16,444.98 355.15,438.31 357.13,431.63 359.11,430.52 361.10,428.30 363.08,429.41 365.06,431.63 367.05,431.63 369.03,431.63 371.01,434.97 373.00,431.63 374.98,432.74 376.96,432.74 378.94,434.97 380.93,431.63 382.91,431.63 384.89,434.97 386.88,432.74 388.86,430.52 390.84,427.18 392.83,422.73 394.81,420.51 396.79,419.40 398.78,416.06 400.76,414.95 402.74,411.61 404.72,410.50 406.71,408.27 408.69,406.05 410.67,406.05 412.66,402.71 414.64,399.37 416.62,394.93 418.61,394.93 420.59,399.37 422.57,399.37 424.56,400.49 426.54,401.60 428.52,402.71 430.50,402.71 432.49,410.50 434.47,409.39 436.45,412.72 438.44,417.17 440.42,420.51 442.40,422.73 444.39,426.07 446.37,428.30 448.35,428.30 450.34,429.41 452.32,432.74 454.30,434.97 456.28,431.63 458.27,431.63 460.25,433.86 462.23,432.74 464.22,434.97 466.20,433.86 468.18,433.86 470.17,434.97 472.15,434.97 474.13,433.86 476.12,434.97 478.10,432.74 480.08,432.74 482.06,436.08 484.05,436.08 486.03,436.08 488.01,437.19 490.00,437.19 491.98,440.53 493.96,434.97 495.95,434.97 497.93,436.08 499.91,434.97 501.90,434.97 503.88,437.19 505.86,438.31 507.84,437.19 509.83,437.19 511.81,438.31 513.79,441.64 515.78,441.64 517.76,441.64 519.74,441.64 521.73,444.98 523.71,444.98 525.69,446.09 527.68,447.20 529.66,448.32 531.64,449.43 533.62,448.32 535.61,450.54 537.59,451.65 539.57,451.65 541.56,451.65 543.54,451.65 545.52,454.99 547.51,452.77 549.49,454.99 551.47,454.99 553.46,452.77 555.44,454.99 557.42,454.99 559.40,456.10 561.39,456.10 563.37,454.99 565.35,457.22 567.34,459.44 569.32,457.22 571.30,457.22 573.29,456.10 575.27,457.22 577.25,457.22 579.24,456.10 581.22,456.10 583.20,454.99 585.18,454.99 587.17,454.99 589.15,456.10 591.13,457.22 593.12,454.99 595.10,454.99 597.08,457.22 599.07,453.88 601.05,451.65 603.03,449.43 605.02,449.43 607.00,446.09 608.98,444.98 610.96,443.87 612.95,441.64 614.93,439.42 616.91,440.53 618.90,438.31 620.88,438.31 622.86,439.42 624.85,438.31 626.83,438.31 628.81,437.19 630.80,437.19 632.78,433.86" style="stroke-width: 0.75;"/>
<polyline points="632.78,433.86 634.76,437.20 636.74,438.44 638.73,439.46 640.71,440.45 642.69,441.46 644.68,442.52 646.66,443.63 648.64,444.79 650.63,445.99 652.61,447.23 654.59,448.48 656.58,449.75 658.56,451.03 660.54,452.29 662.52,453.55 664.51,454.78 666.49,455.98 668.47,457.16 670.46,458.29 672.44,459.39 674.42,460.44 676.41,461.45 678.39,462.41 680.37,463.32" style="stroke-width: 0.75;stroke: #FF0000; stroke-dasharray: 1.00, 3.00;"/>
<polyline points="632.78,433.86 634.76,429.48 636.74,427.41 638.73,425.73 640.71,424.26 642.69,422.90 644.68,421.64 646.66,420.45 648.64,419.33 650.63,418.26 652.61,417.26 654.59,416.32 656.58,415.44 658.56,414.62 660.54,413.86 662.52,413.17 664.51,412.53 666.49,411.95 668.47,411.42 670.46,410.95 672.44,410.53 674.42,410.17 676.41,409.84 678.39,409.57 680.37,409.33" style="stroke-width: 0.75;stroke: #FF0000; stroke-dasharray: 1.00, 3.00;"/>
<line x1="632.78" y1="480.53" x2="632.78" y2="391.63" style="stroke-width: 0.75;stroke: #BEBEBE; stroke-dasharray: 1.00, 3.00, 4.00, 3.00;"/>
</g>
</svg>