<svg xmlns="http://www.w3.org/2000/svg" xmlns:xlink="http://www.w3.org/1999/xlink" class="httpgd" width="1229.00" height="742.00" viewBox="0 0 983.20 593.60">
<defs>
  <style type='text/css'><![CDATA[
    .httpgd line, .httpgd polyline, .httpgd polygon, .httpgd path, .httpgd rect, .httpgd circle {
      fill: none;
      stroke: #000000;
      stroke-linecap: round;
      stroke-linejoin: round;
      stroke-miterlimit: 10.00;
    }
  ]]></style>
<clipPath id="c0"><rect x="0.00" y="0.00" width="983.20" height="593.60"/></clipPath>
<clipPath id="c1"><rect x="0.00" y="47.52" width="983.20" height="163.02"/></clipPath>
<clipPath id="c2"><rect x="48.47" y="47.52" width="914.77" height="163.02"/></clipPath>
<clipPath id="c3"><rect x="0.00" y="0.00" width="983.20" height="593.60"/></clipPath>
<clipPath id="c4"><rect x="48.47" y="210.54" width="914.77" height="163.02"/></clipPath>
<clipPath id="c5"><rect x="0.00" y="210.54" width="983.20" height="163.02"/></clipPath>
<clipPath id="c6"><rect x="48.47" y="210.54" width="914.77" height="163.02"/></clipPath>
<clipPath id="c7"><rect x="0.00" y="0.00" width="983.20" height="593.60"/></clipPath>
<clipPath id="c8"><rect x="48.47" y="373.56" width="914.77" height="163.02"/></clipPath>
<clipPath id="c9"><rect x="0.00" y="373.56" width="983.20" height="163.02"/></clipPath>
<clipPath id="c10"><rect x="48.47" y="373.56" width="914.77" height="163.02"/></clipPath>
<clipPath id="c11"><rect x="0.00" y="0.00" width="983.20" height="593.60"/></clipPath>
</defs>
<rect width="100%" height="100%" style="stroke: none;fill: #FFFFFF;"/>
<g clip-path="url(#c0)">
</g><g clip-path="url(#c2)">
<polyline points="82.35,152.70 85.30,140.24 88.25,145.05 91.20,137.22 94.16,150.21 97.11,150.48 100.06,140.96 103.01,142.47 105.96,137.04 108.91,135.88 111.86,130.45 114.81,137.75 117.77,118.08 120.72,123.78 123.67,136.59 126.62,139.89 129.57,134.64 132.52,139.53 135.47,153.77 138.42,154.66 141.38,141.40 144.33,152.61 147.28,166.14 150.23,157.42 153.18,178.96 156.13,159.38 159.08,158.13 162.03,163.03 164.99,160.71 167.94,152.26 170.89,140.51 173.84,151.01 176.79,139.00 179.74,134.90 182.69,128.94 185.64,107.05 188.60,112.83 191.55,120.57 194.50,105.53 197.45,98.77 200.40,93.16 203.35,95.21 206.30,90.14 209.25,83.46 212.21,93.87 215.16,86.13 218.11,81.33 221.06,71.27 224.01,53.56 226.96,62.81 229.91,67.80 232.86,75.36 235.82,77.85 238.77,74.92 241.72,75.10 244.67,63.53 247.62,54.71 250.57,54.36 253.52,60.05 256.47,64.95 259.43,54.71 262.38,71.80 265.33,65.04 268.28,90.05 271.23,73.85 274.18,91.56 277.13,86.58 280.08,92.98 283.04,108.74 285.99,126.27 288.94,122.09 291.89,139.71 294.84,146.38 297.79,119.60 300.74,137.13 303.69,132.50 306.65,148.61 309.60,140.87 312.55,158.40 315.50,173.89 318.45,173.17 321.40,180.29 324.35,184.21 327.31,188.75 330.26,183.68 333.21,195.07 336.16,187.15 339.11,186.08 342.06,175.75 345.01,178.78 347.96,166.41 350.92,163.38 353.87,163.03 356.82,155.91 359.77,154.48 362.72,157.95 365.67,153.86 368.62,138.64 371.57,149.05 374.53,151.37 377.48,145.67 380.43,142.47 383.38,150.83 386.33,137.57 389.28,122.44 392.23,130.54 395.18,129.47 398.14,114.97 401.09,139.62 404.04,102.60 406.99,91.92 409.94,107.14 412.89,100.10 415.84,107.05 418.79,92.36 421.75,95.74 424.70,102.06 427.65,93.79 430.60,93.79 433.55,84.89 436.50,122.62 439.45,120.84 442.40,94.68 445.36,79.99 448.31,90.85 451.26,91.29 454.21,89.34 457.16,97.88 460.11,100.19 463.06,99.21 466.01,89.16 468.97,93.61 471.92,130.45 474.87,140.24 477.82,111.14 480.77,119.95 483.72,108.56 486.67,105.27 489.62,118.88 492.58,117.28 495.53,112.48 498.48,125.91 501.43,139.89 504.38,142.20 507.33,156.17 510.28,155.37 513.23,182.34 516.19,181.98 519.14,193.02 522.09,169.08 525.04,162.58 527.99,147.72 530.94,144.60 533.89,139.98 536.84,141.13 539.80,143.63 542.75,137.84 545.70,164.63 548.65,159.29 551.60,154.48 554.55,174.06 557.50,182.52 560.45,182.87 563.41,191.86 566.36,194.44 569.31,197.83 572.26,201.03 575.21,194.53 578.16,200.50 581.11,198.45 584.06,192.66 587.02,193.91 589.97,184.30 592.92,195.24 595.87,171.75 598.82,182.43 601.77,173.71 604.72,171.13 607.67,153.42 610.63,159.56 613.58,134.37 616.53,124.31 619.48,132.59 622.43,144.52 625.38,117.46 628.33,121.29 631.28,116.66 634.24,105.53 637.19,123.33 640.14,122.89 643.09,116.66 646.04,125.29 648.99,106.69 651.94,74.38 654.89,127.52 657.85,110.78 660.80,117.64 663.75,111.50 666.70,121.38 669.65,134.37 672.60,124.40 675.55,134.01 678.50,125.20 681.46,132.06 684.41,123.24 687.36,130.28 690.31,115.32 693.26,113.45 696.21,126.00 699.16,126.36 702.11,125.65 705.07,120.40 708.02,126.36 710.97,112.30 713.92,124.40 716.87,102.69 719.82,100.02 722.77,111.05 725.72,108.56 728.68,103.49 731.63,110.52 734.58,111.14 737.53,116.93 740.48,114.70 743.43,125.38 746.38,125.91 749.33,131.08 752.29,112.39 755.24,117.64 758.19,116.75 761.14,121.91 764.09,131.88 767.04,130.63 769.99,133.66 772.94,135.35 775.90,132.68 778.85,124.67 781.80,140.69 784.75,128.14 787.70,150.92 790.65,162.40 793.60,144.43 796.55,139.18 799.51,135.53 802.46,149.05 805.41,143.98 808.36,144.96 811.31,142.65 814.26,142.74 817.21,140.07 820.16,135.88 823.12,136.42 826.07,131.25 829.02,148.70 831.97,148.97 834.92,156.35 837.87,157.06 840.82,151.19 843.77,148.52 846.73,156.98 849.68,161.69 852.63,150.03 855.58,155.28 858.53,164.18 861.48,137.48 864.43,147.63 867.38,160.80 870.34,164.45 873.29,167.66 876.24,170.77 879.19,171.30 882.14,176.29 885.09,176.73 888.04,185.28 890.99,173.62 893.95,189.28 896.90,204.50 899.85,189.64 902.80,193.55 905.75,186.43 908.70,186.88 911.65,183.32 914.60,180.92 917.56,182.16 920.51,185.19 923.46,179.49 926.41,177.36 929.36,179.49" style="stroke-width: 0.75;"/>
</g><g clip-path="url(#c3)">
<polygon points="48.47,210.54 963.24,210.54 963.24,47.52 48.47,47.52" style="stroke-width: 0.75;" />
<line x1="48.47" y1="186.52" x2="48.47" y2="53.02" style="stroke-width: 0.75;"/>
<line x1="48.47" y1="186.52" x2="43.72" y2="186.52" style="stroke-width: 0.75;"/>
<line x1="48.47" y1="142.02" x2="43.72" y2="142.02" style="stroke-width: 0.75;"/>
<line x1="48.47" y1="97.52" x2="43.72" y2="97.52" style="stroke-width: 0.75;"/>
<line x1="48.47" y1="53.02" x2="43.72" y2="53.02" style="stroke-width: 0.75;"/>
<g><text transform="translate(37.07,186.52) rotate(-90.00)" text-anchor="middle" style="font-family: Arial;font-size: 7.92px;" textLength="10.99px" lengthAdjust="spacingAndGlyphs">1.0</text></g>
<g><text transform="translate(37.07,142.02) rotate(-90.00)" text-anchor="middle" style="font-family: Arial;font-size: 7.92px;" textLength="10.99px" lengthAdjust="spacingAndGlyphs">1.5</text></g>
<g><text transform="translate(37.07,97.52) rotate(-90.00)" text-anchor="middle" style="font-family: Arial;font-size: 7.92px;" textLength="10.99px" lengthAdjust="spacingAndGlyphs">2.0</text></g>
<g><text transform="translate(37.07,53.02) rotate(-90.00)" text-anchor="middle" style="font-family: Arial;font-size: 7.92px;" textLength="10.99px" lengthAdjust="spacingAndGlyphs">2.5</text></g>
<g><text transform="translate(18.06,129.03) rotate(-90.00)" text-anchor="middle" style="font-family: Arial;font-size: 12.00px;" textLength="46.24px" lengthAdjust="spacingAndGlyphs">STARTS</text></g>
</g><g clip-path="url(#c6)">
<polyline points="82.35,331.47 85.30,340.62 88.25,324.19 91.20,323.64 94.16,319.34 97.11,339.51 100.06,319.01 103.01,329.04 105.96,316.03 108.91,321.43 111.86,319.34 114.81,316.80 117.77,331.47 120.72,314.15 123.67,298.28 126.62,324.74 129.57,312.39 132.52,309.63 135.47,312.17 138.42,316.47 141.38,319.34 144.33,315.04 147.28,315.26 150.23,315.48 153.18,311.95 156.13,312.39 159.08,324.85 162.03,320.77 164.99,322.98 167.94,312.28 170.89,317.46 173.84,292.65 176.79,317.57 179.74,311.62 182.69,309.41 185.64,311.62 188.60,307.87 191.55,310.41 194.50,305.89 197.45,281.63 200.40,289.57 203.35,289.57 206.30,282.73 209.25,261.01 212.21,271.15 215.16,269.94 218.11,266.74 221.06,261.12 224.01,255.94 226.96,242.82 229.91,251.64 232.86,252.85 235.82,261.01 238.77,256.60 241.72,257.26 244.67,238.30 247.62,243.70 250.57,250.09 253.52,251.20 256.47,236.20 259.43,231.68 262.38,235.87 265.33,227.93 268.28,228.04 271.23,216.58 274.18,221.10 277.13,242.27 280.08,243.37 283.04,242.82 285.99,243.81 288.94,257.81 291.89,263.99 294.84,257.04 297.79,256.38 300.74,270.93 303.69,268.29 306.65,280.97 309.60,260.90 312.55,283.17 315.50,289.90 318.45,288.02 321.40,290.34 324.35,294.75 327.31,300.26 330.26,294.97 333.21,321.65 336.16,327.50 339.11,329.15 342.06,321.32 345.01,334.00 347.96,329.37 350.92,327.83 353.87,323.09 356.82,345.03 359.77,317.57 362.72,326.06 365.67,331.35 368.62,325.51 371.57,321.54 374.53,323.20 377.48,311.29 380.43,316.80 383.38,324.30 386.33,318.57 389.28,318.90 392.23,317.02 395.18,312.61 398.14,309.41 401.09,309.41 404.04,287.58 406.99,291.55 409.94,299.38 412.89,298.61 415.84,289.68 418.79,284.05 421.75,285.60 424.70,264.43 427.65,285.38 430.60,274.90 433.55,289.90 436.50,274.13 439.45,280.53 442.40,273.25 445.36,266.85 448.31,266.08 451.26,260.02 454.21,254.28 457.16,252.19 460.11,255.72 463.06,262.22 466.01,263.11 468.97,266.74 471.92,266.08 474.87,266.63 477.82,255.50 480.77,264.32 483.72,248.77 486.67,265.75 489.62,276.12 492.58,273.91 495.53,251.42 498.48,268.07 501.43,261.45 504.38,264.65 507.33,272.26 510.28,271.26 513.23,282.51 516.19,277.00 519.14,301.14 522.09,306.88 525.04,307.76 527.99,311.29 530.94,330.36 533.89,329.81 536.84,325.29 539.80,318.12 542.75,330.03 545.70,316.25 548.65,318.23 551.60,308.09 554.55,332.68 557.50,321.21 560.45,322.64 563.41,335.32 566.36,335.43 569.31,337.09 572.26,351.64 575.21,345.58 578.16,354.07 581.11,366.97 584.06,363.66 587.02,362.12 589.97,353.19 592.92,367.52 595.87,359.14 598.82,361.46 601.77,365.65 604.72,353.30 607.67,351.09 610.63,354.62 613.58,339.18 616.53,344.92 619.48,341.28 622.43,338.08 625.38,326.72 628.33,321.87 631.28,314.60 634.24,281.41 637.19,305.44 640.14,295.19 643.09,308.86 646.04,303.68 648.99,294.20 651.94,297.84 654.89,293.65 657.85,284.50 660.80,279.09 663.75,281.08 666.70,283.50 669.65,284.27 672.60,289.02 675.55,290.01 678.50,292.43 681.46,290.45 684.41,288.57 687.36,274.68 690.31,280.97 693.26,290.34 696.21,286.48 699.16,272.59 702.11,283.39 705.07,284.27 708.02,270.93 710.97,297.51 713.92,277.22 716.87,279.09 719.82,280.09 722.77,276.78 725.72,276.45 728.68,284.27 731.63,267.96 734.58,285.71 737.53,280.20 740.48,275.67 743.43,279.09 746.38,273.58 749.33,272.37 752.29,267.18 755.24,264.76 758.19,274.79 761.14,283.28 764.09,278.76 767.04,281.19 769.99,289.79 772.94,284.27 775.90,291.00 778.85,295.08 781.80,296.18 784.75,296.07 787.70,290.12 790.65,298.72 793.60,310.19 796.55,293.65 799.51,291.99 802.46,306.55 805.41,303.35 808.36,301.70 811.31,299.05 814.26,301.25 817.21,301.48 820.16,314.93 823.12,299.49 826.07,297.95 829.02,293.98 831.97,311.07 834.92,300.04 837.87,310.30 840.82,321.65 843.77,317.24 846.73,312.50 849.68,322.53 852.63,323.09 855.58,307.43 858.53,326.28 861.48,303.79 864.43,320.99 867.38,321.76 870.34,323.20 873.29,321.10 876.24,330.80 879.19,327.28 882.14,325.95 885.09,325.40 888.04,328.71 890.99,332.46 893.95,340.73 896.90,343.37 899.85,349.88 902.80,340.40 905.75,349.55 908.70,352.08 911.65,349.55 914.60,351.42 917.56,354.29 920.51,335.99 923.46,351.42 926.41,358.37 929.36,359.58" style="stroke-width: 0.75;"/>
</g><g clip-path="url(#c7)">
<polygon points="48.47,373.56 963.24,373.56 963.24,210.54 48.47,210.54" style="stroke-width: 0.75;" />
<line x1="48.47" y1="359.80" x2="48.47" y2="227.49" style="stroke-width: 0.75;"/>
<line x1="48.47" y1="359.80" x2="43.72" y2="359.80" style="stroke-width: 0.75;"/>
<line x1="48.47" y1="337.75" x2="43.72" y2="337.75" style="stroke-width: 0.75;"/>
<line x1="48.47" y1="315.70" x2="43.72" y2="315.70" style="stroke-width: 0.75;"/>
<line x1="48.47" y1="293.65" x2="43.72" y2="293.65" style="stroke-width: 0.75;"/>
<line x1="48.47" y1="271.60" x2="43.72" y2="271.60" style="stroke-width: 0.75;"/>
<line x1="48.47" y1="249.54" x2="43.72" y2="249.54" style="stroke-width: 0.75;"/>
<line x1="48.47" y1="227.49" x2="43.72" y2="227.49" style="stroke-width: 0.75;"/>
<g><text transform="translate(37.07,359.80) rotate(-90.00)" text-anchor="middle" style="font-family: Arial;font-size: 7.92px;" textLength="10.99px" lengthAdjust="spacingAndGlyphs">1.0</text></g>
<g><text transform="translate(37.07,337.75) rotate(-90.00)" text-anchor="middle" style="font-family: Arial;font-size: 7.92px;" textLength="10.99px" lengthAdjust="spacingAndGlyphs">1.2</text></g>
<g><text transform="translate(37.07,315.70) rotate(-90.00)" text-anchor="middle" style="font-family: Arial;font-size: 7.92px;" textLength="10.99px" lengthAdjust="spacingAndGlyphs">1.4</text></g>
<g><text transform="translate(37.07,293.65) rotate(-90.00)" text-anchor="middle" style="font-family: Arial;font-size: 7.92px;" textLength="10.99px" lengthAdjust="spacingAndGlyphs">1.6</text></g>
<g><text transform="translate(37.07,271.60) rotate(-90.00)" text-anchor="middle" style="font-family: Arial;font-size: 7.92px;" textLength="10.99px" lengthAdjust="spacingAndGlyphs">1.8</text></g>
<g><text transform="translate(37.07,249.54) rotate(-90.00)" text-anchor="middle" style="font-family: Arial;font-size: 7.92px;" textLength="10.99px" lengthAdjust="spacingAndGlyphs">2.0</text></g>
<g><text transform="translate(37.07,227.49) rotate(-90.00)" text-anchor="middle" style="font-family: Arial;font-size: 7.92px;" textLength="10.99px" lengthAdjust="spacingAndGlyphs">2.2</text></g>
<g><text transform="translate(18.06,292.05) rotate(-90.00)" text-anchor="middle" style="font-family: Arial;font-size: 12.00px;" textLength="44.02px" lengthAdjust="spacingAndGlyphs">COMPS</text></g>
</g><g clip-path="url(#c10)">
<polyline points="82.35,524.42 85.30,522.38 88.25,524.42 91.20,528.50 94.16,528.50 97.11,524.42 100.06,524.42 103.01,528.50 105.96,530.54 108.91,530.54 111.86,530.54 114.81,530.54 117.77,530.54 120.72,530.54 123.67,530.54 126.62,530.54 129.57,530.54 132.52,528.50 135.47,528.50 138.42,528.50 141.38,524.42 144.33,524.42 147.28,528.50 150.23,528.50 153.18,520.34 156.13,514.22 159.08,510.14 162.03,506.06 164.99,501.98 167.94,499.94 170.89,497.90 173.84,495.86 176.79,489.74 179.74,487.70 182.69,479.54 185.64,475.46 188.60,479.54 191.55,479.54 194.50,477.50 197.45,479.54 200.40,479.54 203.35,479.54 206.30,477.50 209.25,475.46 212.21,477.50 215.16,481.58 218.11,477.50 221.06,477.50 224.01,481.58 226.96,483.62 229.91,481.58 232.86,483.62 235.82,483.62 238.77,483.62 241.72,485.66 244.67,485.66 247.62,487.70 250.57,485.66 253.52,491.78 256.47,493.82 259.43,499.94 262.38,497.90 265.33,499.94 268.28,497.90 271.23,499.94 274.18,499.94 277.13,501.98 280.08,501.98 283.04,501.98 285.99,506.06 288.94,501.98 291.89,499.94 294.84,495.86 297.79,493.82 300.74,495.86 303.69,495.86 306.65,495.86 309.60,489.74 312.55,487.70 315.50,487.70 318.45,479.54 321.40,477.50 324.35,465.27 327.31,453.03 330.26,434.67 333.21,434.67 336.16,424.47 339.11,420.39 342.06,416.31 345.01,420.39 347.96,424.47 350.92,428.55 353.87,428.55 356.82,428.55 359.77,430.59 362.72,432.63 365.67,438.75 368.62,442.83 371.57,444.87 374.53,442.83 377.48,448.95 380.43,444.87 383.38,440.79 386.33,440.79 389.28,444.87 392.23,442.83 395.18,440.79 398.14,440.79 401.09,446.91 404.04,444.87 406.99,448.95 409.94,453.03 412.89,457.11 415.84,453.03 418.79,459.15 421.75,457.11 424.70,461.19 427.65,461.19 430.60,461.19 433.55,469.35 436.50,469.35 439.45,471.38 442.40,471.38 445.36,475.46 448.31,477.50 451.26,479.54 454.21,473.42 457.16,479.54 460.11,477.50 463.06,481.58 466.01,479.54 468.97,477.50 471.92,479.54 474.87,479.54 477.82,481.58 480.77,481.58 483.72,485.66 486.67,483.62 489.62,483.62 492.58,477.50 495.53,479.54 498.48,477.50 501.43,479.54 504.38,477.50 507.33,471.38 510.28,471.38 513.23,471.38 516.19,459.15 519.14,446.91 522.09,444.87 525.04,440.79 527.99,442.83 530.94,446.91 533.89,446.91 536.84,446.91 539.80,453.03 542.75,446.91 545.70,448.95 548.65,448.95 551.60,453.03 554.55,446.91 557.50,446.91 560.45,453.03 563.41,448.95 566.36,444.87 569.31,438.75 572.26,430.59 575.21,426.51 578.16,424.47 581.11,418.35 584.06,416.31 587.02,410.19 589.97,408.15 592.92,404.07 595.87,399.99 598.82,399.99 601.77,393.87 604.72,387.75 607.67,379.60 610.63,379.60 613.58,387.75 616.53,387.75 619.48,389.79 622.43,391.83 625.38,393.87 628.33,393.87 631.28,408.15 634.24,406.11 637.19,412.23 640.14,420.39 643.09,426.51 646.04,430.59 648.99,436.71 651.94,440.79 654.89,440.79 657.85,442.83 660.80,448.95 663.75,453.03 666.70,446.91 669.65,446.91 672.60,450.99 675.55,448.95 678.50,453.03 681.46,450.99 684.41,450.99 687.36,453.03 690.31,453.03 693.26,450.99 696.21,453.03 699.16,448.95 702.11,448.95 705.07,455.07 708.02,455.07 710.97,455.07 713.92,457.11 716.87,457.11 719.82,463.23 722.77,453.03 725.72,453.03 728.68,455.07 731.63,453.03 734.58,453.03 737.53,457.11 740.48,459.15 743.43,457.11 746.38,457.11 749.33,459.15 752.29,465.27 755.24,465.27 758.19,465.27 761.14,465.27 764.09,471.38 767.04,471.38 769.99,473.42 772.94,475.46 775.90,477.50 778.85,479.54 781.80,477.50 784.75,481.58 787.70,483.62 790.65,483.62 793.60,483.62 796.55,483.62 799.51,489.74 802.46,485.66 805.41,489.74 808.36,489.74 811.31,485.66 814.26,489.74 817.21,489.74 820.16,491.78 823.12,491.78 826.07,489.74 829.02,493.82 831.97,497.90 834.92,493.82 837.87,493.82 840.82,491.78 843.77,493.82 846.73,493.82 849.68,491.78 852.63,491.78 855.58,489.74 858.53,489.74 861.48,489.74 864.43,491.78 867.38,493.82 870.34,489.74 873.29,489.74 876.24,493.82 879.19,487.70 882.14,483.62 885.09,479.54 888.04,479.54 890.99,473.42 893.95,471.38 896.90,469.35 899.85,465.27 902.80,461.19 905.75,463.23 908.70,459.15 911.65,459.15 914.60,461.19 917.56,459.15 920.51,459.15 923.46,457.11 926.41,457.11 929.36,450.99" style="stroke-width: 0.75;"/>
</g><g clip-path="url(#c11)">
<polygon points="48.47,536.58 963.24,536.58 963.24,373.56 48.47,373.56" style="stroke-width: 0.75;" />
<line x1="48.47" y1="518.30" x2="48.47" y2="395.91" style="stroke-width: 0.75;"/>
<line x1="48.47" y1="518.30" x2="43.72" y2="518.30" style="stroke-width: 0.75;"/>
<line x1="48.47" y1="477.50" x2="43.72" y2="477.50" style="stroke-width: 0.75;"/>
<line x1="48.47" y1="436.71" x2="43.72" y2="436.71" style="stroke-width: 0.75;"/>
<line x1="48.47" y1="395.91" x2="43.72" y2="395.91" style="stroke-width: 0.75;"/>
<g><text transform="translate(37.07,518.30) rotate(-90.00)" text-anchor="middle" style="font-family: Arial;font-size: 7.92px;" textLength="4.40px" lengthAdjust="spacingAndGlyphs">4</text></g>
<g><text transform="translate(37.07,477.50) rotate(-90.00)" text-anchor="middle" style="font-family: Arial;font-size: 7.92px;" textLength="4.40px" lengthAdjust="spacingAndGlyphs">6</text></g>
<g><text transform="translate(37.07,436.71) rotate(-90.00)" text-anchor="middle" style="font-family: Arial;font-size: 7.92px;" textLength="4.40px" lengthAdjust="spacingAndGlyphs">8</text></g>
<g><text transform="translate(37.07,395.91) rotate(-90.00)" text-anchor="middle" style="font-family: Arial;font-size: 7.92px;" textLength="8.80px" lengthAdjust="spacingAndGlyphs">10</text></g>
<line x1="153.18" y1="536.58" x2="861.48" y2="536.58" style="stroke-width: 0.75;"/>
<line x1="153.18" y1="536.58" x2="153.18" y2="541.33" style="stroke-width: 0.75;"/>
<line x1="330.26" y1="536.58" x2="330.26" y2="541.33" style="stroke-width: 0.75;"/>
<line x1="507.33" y1="536.58" x2="507.33" y2="541.33" style="stroke-width: 0.75;"/>
<line x1="684.41" y1="536.58" x2="684.41" y2="541.33" style="stroke-width: 0.75;"/>
<line x1="861.48" y1="536.58" x2="861.48" y2="541.33" style="stroke-width: 0.75;"/>
<g><text x="153.18" y="553.68" text-anchor="middle" style="font-family: Arial;font-size: 7.92px;" textLength="17.60px" lengthAdjust="spacingAndGlyphs">1970</text></g>
<g><text x="330.26" y="553.68" text-anchor="middle" style="font-family: Arial;font-size: 7.92px;" textLength="17.60px" lengthAdjust="spacingAndGlyphs">1975</text></g>
<g><text x="507.33" y="553.68" text-anchor="middle" style="font-family: Arial;font-size: 7.92px;" textLength="17.60px" lengthAdjust="spacingAndGlyphs">1980</text></g>
<g><text x="684.41" y="553.68" text-anchor="middle" style="font-family: Arial;font-size: 7.92px;" textLength="17.60px" lengthAdjust="spacingAndGlyphs">1985</text></g>
<g><text x="861.48" y="553.68" text-anchor="middle" style="font-family: Arial;font-size: 7.92px;" textLength="17.60px" lengthAdjust="spacingAndGlyphs">1990</text></g>
<g><text transform="translate(18.06,455.07) rotate(-90.00)" text-anchor="middle" style="font-family: Arial;font-size: 12.00px;" textLength="43.35px" lengthAdjust="spacingAndGlyphs">UNEMP</text></g>
<g><text x="505.86" y="572.69" text-anchor="middle" style="font-family: Arial;font-size: 12.00px;" textLength="26.22px" lengthAdjust="spacingAndGlyphs">Time</text></g>
<g><text x="505.86" y="25.92" text-anchor="middle" style="font-family: Arial;font-size: 14.40px;font-weight: bold;" textLength="147.75px" lengthAdjust="spacingAndGlyphs">Time Series Variables</text></g>
</g>
</svg>